<svg width="74" height="52" fill="none" xmlns="http://www.w3.org/2000/svg"><path d="M28.559 46.249l-1.61-1.187-.001.002 1.61 1.185zm-24.37.137l-1.59 1.213.004.005.004.006 1.581-1.224zM.018 30.629h-2v.02l2-.02zm4-24.712l-1.6-1.202-.004.007 1.604 1.195zm24.438-.137l-1.589 1.215.005.007 1.584-1.222zm4.136 15.655h2v-.02l-2 .02zm-10.22-10.938l-1.727 1.008.004.008 1.723-1.016zm-12.065-.17l1.698 1.056.005-.009-1.703-1.048zM8.29 19.964l-2-.031v.031h2zm1.948 21.67l-1.737.99 1.737-.99zm12.032.273l1.708 1.04.005-.008-1.713-1.032zm2.016-9.912l2 .03v-.03h-2zm6.306-1.948c0 6.958-1.317 11.86-3.643 15.014l3.22 2.374c3.05-4.137 4.423-10.036 4.423-17.388h-4zm-3.644 15.016c-2.207 2.998-5.605 4.62-10.592 4.62v4c5.951 0 10.688-2.002 13.813-6.25l-3.221-2.37zm-10.592 4.62c-4.9 0-8.31-1.581-10.586-4.523l-3.163 2.45c3.192 4.122 7.894 6.073 13.75 6.073v-4zM5.78 45.173c-2.34-3.068-3.694-7.821-3.76-14.564l-4 .04c.07 7.157 1.497 12.908 4.58 16.95l3.18-2.426zM2.02 30.629v-8.613h-4v8.613h4zm0-8.613c0-6.965 1.307-11.824 3.602-14.904l-3.207-2.39C-.623 8.797-1.981 14.67-1.981 22.016h4zM5.616 7.119c2.225-2.96 5.65-4.568 10.672-4.568v-4c-5.961 0-10.716 1.97-13.87 6.164L5.617 7.12zM16.288 2.55c4.99 0 8.382 1.571 10.58 4.444l3.177-2.43C26.91.465 22.19-1.449 16.288-1.449v4zM26.872 7c2.309 2.994 3.654 7.704 3.72 14.453l4-.04c-.07-7.15-1.483-12.876-4.552-16.855l-3.168 2.443zm3.72 14.434v8.613h4v-8.613h-4zm-4.306-.684c0-4.769-.636-8.632-2.191-11.27l-3.446 2.032c.997 1.691 1.637 4.664 1.637 9.238h4zM24.1 9.489c-1.675-2.871-4.405-4.273-7.812-4.273v4c2.153 0 3.48.785 4.357 2.289L24.1 9.489zm-7.812-4.273c-3.312 0-5.998 1.32-7.685 4.062l3.407 2.096c.865-1.406 2.167-2.158 4.278-2.158v-4zM8.608 9.27C7.042 11.789 6.36 15.448 6.29 19.934l4 .062c.066-4.265.73-7.031 1.715-8.613L8.609 9.27zM6.29 19.965v11.28h4v-11.28h-4zm0 11.28c0 4.764.653 8.648 2.21 11.38l3.476-1.98c-1.04-1.826-1.686-4.868-1.686-9.4h-4zm2.21 11.38c1.68 2.948 4.41 4.428 7.856 4.428v-4c-2.114 0-3.463-.799-4.38-2.409L8.5 42.625zm7.856 4.428c3.292 0 5.947-1.353 7.622-4.105l-3.417-2.08c-.877 1.441-2.164 2.185-4.205 2.185v4zm7.627-4.113c1.553-2.58 2.233-6.317 2.303-10.913l-4-.061c-.066 4.381-.73 7.252-1.73 8.91l3.427 2.064zm2.303-10.944V20.751h-4v11.245h4zM73.402 51v2h2v-2h-2zM39.94 51h-2v2h2v-2zm0-5.708l-1.474-1.352-.526.574v.778h2zm16.578-18.081l1.474 1.352.007-.008.007-.008-1.488-1.336zm5.092-6.665l-1.737-.99-.005.007 1.742.983zm-.478-11.143l-1.482 1.343.006.007.005.006 1.47-1.356zM47.289 16.41v2h2v-2h-2zm-8.306 0h-2v2h2v-2zm2.051-8.169l-1.737-.99-.003.005 1.74.985zm5.913-5.674L46.022.794l-.007.004.932 1.77zM67.25 4.208l-1.319 1.504.007.005.006.006 1.306-1.515zm2.085 17.876l-1.777-.918-.003.006 1.78.912zm-6.87 9.263l1.461 1.365.005-.005.005-.005-1.471-1.355zM50.297 44.369l-1.461-1.365-3.145 3.365h4.606v-2zm23.105 0h2v-2h-2v2zm0 4.631H39.94v4h33.462v-4zM41.94 51v-5.708h-4V51h4zm-.525-4.356l16.577-18.081-2.949-2.704L38.466 43.94l2.949 2.704zm16.591-18.097c2.429-2.706 4.238-5.054 5.346-7.018l-3.484-1.966c-.897 1.59-2.482 3.686-4.839 6.312l2.977 2.672zm5.342-7.011c1.171-2.056 1.8-4.194 1.8-6.39h-4c0 1.403-.396 2.865-1.276 4.41l3.476 1.98zm1.8-6.39c0-2.769-.797-5.2-2.546-7.098l-2.94 2.71c.939 1.02 1.486 2.417 1.486 4.388h4zM62.614 8.06c-1.758-1.94-4.119-2.844-6.848-2.844v4c1.782 0 2.998.553 3.884 1.53l2.964-2.686zm-6.848-2.844c-3.122 0-5.799.97-7.74 3.12l2.97 2.681c1.02-1.131 2.514-1.801 4.77-1.801v-4zm-7.74 3.12c-1.9 2.105-2.737 4.878-2.737 8.074h4c0-2.5.644-4.216 1.706-5.393l-2.969-2.68zm-.737 6.074h-8.306v4h8.306v-4zm-6.306 2c0-2.718.61-5.096 1.792-7.184l-3.481-1.97c-1.553 2.743-2.31 5.81-2.31 9.154h4zm1.789-7.178c1.195-2.098 2.883-3.723 5.107-4.895L46.015.797c-2.88 1.518-5.134 3.675-6.718 6.454l3.475 1.98zm5.1-4.892c2.25-1.174 4.885-1.79 7.962-1.79v-4c-3.622 0-6.91.73-9.812 2.244l1.85 3.546zm7.962-1.79c4.497 0 7.782 1.131 10.097 3.162l2.638-3.008c-3.245-2.845-7.57-4.153-12.735-4.153v4zm10.11 3.173c2.29 1.974 3.51 4.73 3.51 8.534h4c0-4.764-1.583-8.707-4.898-11.564l-2.612 3.03zm3.51 8.534c0 2.097-.595 4.392-1.896 6.909l3.554 1.836c1.525-2.951 2.342-5.875 2.342-8.745h-4zm-1.899 6.915c-1.275 2.488-3.435 5.425-6.561 8.82l2.942 2.71c3.254-3.533 5.674-6.77 7.179-9.706l-3.56-1.824zm-6.552 8.81L48.837 43.003l2.922 2.73 12.168-13.022-2.922-2.73zM50.297 46.368h23.105v-4H50.297v4zm21.105-2V51h4v-6.63h-4z" fill="#fff"/></svg>