<svg width="18" height="18" fill="none" xmlns="http://www.w3.org/2000/svg"><g clip-path="url(#clip0)" fill="#001063"><path d="M14.467 11.908c-.588-.581-1.322-.581-1.906 0-.446.442-.892.884-1.33 1.333-.12.124-.221.15-.367.068-.289-.158-.596-.285-.873-.457-1.292-.813-2.375-1.858-3.333-3.034-.476-.585-.9-1.21-1.195-1.914-.06-.143-.049-.236.067-.353.446-.43.88-.872 1.319-1.314.61-.615.61-1.334-.004-1.952-.349-.352-.697-.696-1.045-1.049-.36-.36-.716-.722-1.079-1.078-.588-.573-1.322-.573-1.906.003-.45.442-.88.896-1.338 1.33-.423.401-.636.892-.681 1.465-.072.932.157 1.813.48 2.67.658 1.776 1.662 3.353 2.88 4.798a17.825 17.825 0 005.903 4.619c1.033.502 2.105.888 3.27.951.801.045 1.498-.157 2.056-.783.382-.427.813-.816 1.217-1.224.6-.607.603-1.341.008-1.94a540.47 540.47 0 00-2.143-2.14zm-.715-2.985l1.382-.236a6.177 6.177 0 00-1.727-3.334 6.144 6.144 0 00-3.52-1.757l-.195 1.39a4.766 4.766 0 012.726 1.36 4.767 4.767 0 011.334 2.577zm2.161-6.009A10.192 10.192 0 0010.07 0l-.195 1.39a8.837 8.837 0 015.05 2.517A8.83 8.83 0 0117.4 8.682l1.382-.236a10.266 10.266 0 00-2.869-5.532z"/></g><defs><clipPath id="clip0"><path fill="#fff" d="M0 0h18v18H0z"/></clipPath></defs></svg>