<svg width="20" height="20" fill="none" xmlns="http://www.w3.org/2000/svg"><g clip-path="url(#clip0)" fill="#fff"><path d="M16.075 13.23c-.654-.644-1.47-.644-2.119 0-.495.492-.99.983-1.477 1.482-.133.138-.246.167-.408.075-.32-.175-.662-.316-.97-.508-1.435-.903-2.638-2.064-3.704-3.37-.528-.65-.998-1.345-1.327-2.127-.067-.158-.054-.262.075-.391.495-.48.978-.97 1.465-1.461.678-.683.678-1.482-.005-2.169-.387-.39-.774-.774-1.16-1.165-.4-.4-.796-.803-1.2-1.199-.653-.636-1.468-.636-2.118.005-.5.49-.978.994-1.485 1.477-.47.445-.708.99-.758 1.627-.079 1.037.175 2.015.533 2.968.732 1.972 1.848 3.725 3.2 5.331a19.804 19.804 0 006.56 5.131c1.148.558 2.338.987 3.633 1.058.89.05 1.664-.175 2.284-.87.425-.475.903-.907 1.353-1.361.666-.674.67-1.49.008-2.156a533.15 533.15 0 00-2.38-2.376zm-.795-3.316l1.535-.262a6.864 6.864 0 00-1.918-3.704 6.827 6.827 0 00-3.912-1.952l-.217 1.544a5.297 5.297 0 013.03 1.51 5.296 5.296 0 011.482 2.864zm2.401-6.676A11.324 11.324 0 0011.19 0l-.217 1.544c2.14.3 4.079 1.27 5.61 2.797a9.81 9.81 0 012.752 5.306l1.535-.262a11.407 11.407 0 00-3.188-6.147z"/></g><defs><clipPath id="clip0"><path fill="#fff" d="M0 0h20v20H0z"/></clipPath></defs></svg>