<svg width="18" height="18" fill="none" xmlns="http://www.w3.org/2000/svg"><path fill-rule="evenodd" clip-rule="evenodd" d="M15.377 2.616A8.926 8.926 0 009.037 0C4.098 0 .078 4.001.076 8.919c0 1.572.412 3.106 1.196 4.46L0 18l4.751-1.24a8.986 8.986 0 004.283 1.085h.004c4.94 0 8.96-4.001 8.962-8.919a8.843 8.843 0 00-2.623-6.31zm-6.34 13.723h-.002a7.468 7.468 0 01-3.792-1.033l-.272-.161-2.82.736.753-2.736-.177-.28a7.37 7.37 0 01-1.139-3.946c.002-4.087 3.344-7.413 7.453-7.413 1.99.001 3.86.773 5.266 2.175a7.352 7.352 0 012.18 5.244c-.002 4.088-3.343 7.414-7.45 7.414zm4.087-5.552c-.224-.112-1.325-.651-1.53-.726-.206-.074-.355-.11-.504.112-.15.223-.579.725-.71.874-.13.149-.26.167-.485.056-.224-.112-.945-.347-1.8-1.107-.666-.59-1.116-1.32-1.246-1.543-.13-.224-.001-.333.098-.455.242-.3.485-.614.56-.763.074-.148.037-.278-.019-.39-.056-.111-.504-1.208-.69-1.655-.182-.434-.367-.376-.504-.382a8.996 8.996 0 00-.43-.008.824.824 0 00-.597.279c-.205.223-.783.762-.783 1.859s.802 2.157.914 2.305c.112.15 1.58 2.4 3.826 3.366.534.23.95.366 1.276.47a3.08 3.08 0 001.41.087c.431-.064 1.325-.539 1.512-1.06.187-.52.187-.966.13-1.06-.055-.092-.204-.148-.428-.26z" fill="#04BA00"/></svg>